# xmcd
#
# Track frame offsets:
#	150
#	10947
#	41141
#	66369
#	89700
#	110383
#	125942
#	145974
#	184189
#
# Disc length: 3240 seconds
#
# Revision: 0
# Processed by: cddbd v1.5.2PL0 Copyright (c) Steve Scherf et al.
# Submitted via: EasyCDDAExtractor 9.0.0.1
#
DISCID=8a0ca609
DTITLE=Uriah Heep - Stadthalle Vienn 17-06-74 Disc 1
DYEAR=1974
DGENRE=Hard Rock
TTITLE0=Opening
TTITLE1=Stealin'
TTITLE2=Suicidal Man
TTITLE3=So Tired
TTITLE4=Wonderworld
TTITLE5=Easy Livin'
TTITLE6=The Easy Road
TTITLE7=I Won't Mind
TTITLE8=July Morning
EXTD=
EXTT0=
EXTT1=
EXTT2=
EXTT3=
EXTT4=
EXTT5=
EXTT6=
EXTT7=
EXTT8=
PLAYORDER=
